<?xml version="1.0" encoding="UTF-8" standalone="no"?>
<svg width="153px" height="112px" viewBox="0 0 153 112" version="1.1" xmlns="http://www.w3.org/2000/svg" xmlns:xlink="http://www.w3.org/1999/xlink" xmlns:sketch="http://www.bohemiancoding.com/sketch/ns">
    <!-- Generator: Sketch 3.3.3 (12081) - http://www.bohemiancoding.com/sketch -->
    <title>noun_51437_cc</title>
    <desc>Created with Sketch.</desc>
    <defs></defs>
    <g id="Page-1" stroke="none" stroke-width="1" fill="none" fill-rule="evenodd" sketch:type="MSPage">
        <g id="noun_51437_cc" sketch:type="MSLayerGroup" transform="translate(0.000000, 0.305664)">
            <path d="M127.305269,79.4182655 C120.286821,79.4182655 114.596661,86.5733833 114.596661,95.4151435 C114.596661,104.251383 120.286821,111.417542 127.305269,111.417542 C134.323717,111.417542 140.013877,104.251383 140.013877,95.4151435 C140.013877,86.5733833 134.323717,79.4182655 127.305269,79.4182655 L127.305269,79.4182655 Z M127.305269,103.768302 C123.642612,103.768302 120.674786,100.030636 120.674786,95.4234249 C120.674786,90.8024113 123.642612,87.073027 127.305269,87.073027 C130.967926,87.073027 133.931368,90.8106927 133.931368,95.4234249 C133.93356,100.025115 130.967926,103.768302 127.305269,103.768302 L127.305269,103.768302 Z" id="Shape" fill="#000000" sketch:type="MSShapeGroup"></path>
            <path d="M53.192911,79.4127445 C46.1722709,79.4127445 40.4821112,86.5706228 40.4821112,95.4123831 C40.4821112,104.245862 46.1722709,111.414782 53.192911,111.414782 C60.2091673,111.414782 65.8993271,104.245862 65.8993271,95.4123831 C65.8971352,86.5706228 60.2091673,79.4127445 53.192911,79.4127445 L53.192911,79.4127445 Z M53.192911,103.768302 C49.5280624,103.768302 46.5624283,100.030636 46.5624283,95.4206644 C46.5624283,90.8024113 49.5302543,87.0702665 53.192911,87.0702665 C56.8533759,87.0702665 59.81901,90.8079322 59.81901,95.4206644 C59.81901,100.022355 56.8533759,103.768302 53.192911,103.768302 L53.192911,103.768302 Z" id="Shape" fill="#000000" sketch:type="MSShapeGroup"></path>
            <path d="M20.3824328,79.4127445 C13.3617927,79.4127445 7.67163296,86.5706228 7.67163296,95.4123831 C7.67163296,104.245862 13.3617927,111.414782 20.3824328,111.414782 C27.3986891,111.414782 33.0888489,104.245862 33.0888489,95.4123831 C33.0888489,86.5706228 27.3986891,79.4127445 20.3824328,79.4127445 L20.3824328,79.4127445 Z M20.3824328,103.768302 C16.7175842,103.768302 13.75195,100.030636 13.75195,95.4206644 C13.75195,90.8024113 16.7197761,87.0702665 20.3824328,87.0702665 C24.0428977,87.0702665 27.0085318,90.8079322 27.0085318,95.4206644 C27.0085318,100.022355 24.0428977,103.768302 20.3824328,103.768302 L20.3824328,103.768302 Z" id="Shape" fill="#000000" sketch:type="MSShapeGroup"></path>
            <path d="M133.705603,6.87332067 L93.7035168,6.87332067 L93.7035168,71.9236108 L3.65388918,71.9236108 L3.65388918,34.2184585 L0,34.2184585 L0,71.9291317 L3.65388918,71.9291317 L3.65388918,71.942934 L0,71.942934 L0,93.3668806 L5.63974617,93.3668806 C6.06716572,83.6362516 12.4543481,75.8959158 20.2925651,75.8959158 C28.1307821,75.8959158 34.5157726,83.6362516 34.9453841,93.3668806 L38.3691243,93.3668806 C38.7987357,83.6362516 45.1859181,75.8959158 53.0219432,75.8959158 C60.8579683,75.8959158 67.2451507,83.6362516 67.6747622,93.3668806 L112.762045,93.3668806 C113.189465,83.6362516 119.576647,75.8959158 127.417056,75.8959158 C135.250889,75.8959158 141.640263,83.6362516 142.072067,93.3668806 L152.893453,93.3668806 L152.893453,45.3155163 C152.884685,29.7906773 133.705603,6.87332067 133.705603,6.87332067 L133.705603,6.87332067 Z M107.128874,50.1187204 L99.4572415,50.1187204 L99.4572415,14.6937099 L107.128874,14.6937099 L107.128874,50.1187204 L107.128874,50.1187204 Z M144.665079,50.1187204 L113.156586,50.1187204 L113.156586,14.6937099 L130.41776,14.6937099 C130.41776,14.6937099 144.665079,29.4042126 144.665079,40.8132026 L144.665079,50.1187204 L144.665079,50.1187204 Z" id="Shape" fill="#000000" sketch:type="MSShapeGroup"></path>
            <path d="M7.30558647,35.9575497 L7.30558647,67.9623476 L32.7206105,67.9623476 L32.7206105,35.9575497 L7.30558647,35.9575497 L7.30558647,35.9575497 Z M9.4974816,40.5730424 L30.3204853,40.5730424 L30.3204853,44.02362 L9.4974816,44.02362 L9.4974816,40.5730424 L9.4974816,40.5730424 Z M9.4974816,50.1766901 L30.3204853,50.1766901 L30.3204853,53.6272678 L9.4974816,53.6272678 L9.4974816,50.1766901 L9.4974816,50.1766901 Z M30.4235044,63.2309155 L9.60050067,63.2309155 L9.60050067,59.7803379 L30.4235044,59.7803379 L30.4235044,63.2309155 L30.4235044,63.2309155 Z" id="Shape" fill="#F3A530" sketch:type="MSShapeGroup"></path>
            <path d="M35.7541934,35.9575497 L35.7541934,67.9623476 L61.1692174,67.9623476 L61.1692174,35.9575497 L35.7541934,35.9575497 L35.7541934,35.9575497 Z M37.9460885,40.5730424 L58.7690922,40.5730424 L58.7690922,44.02362 L37.9460885,44.02362 L37.9460885,40.5730424 L37.9460885,40.5730424 Z M37.9460885,50.1766901 L58.7690922,50.1766901 L58.7690922,53.6272678 L37.9460885,53.6272678 L37.9460885,50.1766901 L37.9460885,50.1766901 Z M58.8743032,63.2309155 L38.0512995,63.2309155 L38.0512995,59.7803379 L58.8743032,59.7803379 L58.8743032,63.2309155 L58.8743032,63.2309155 Z" id="Shape" fill="#F3A530" sketch:type="MSShapeGroup"></path>
            <path d="M64.2049922,35.9575497 L64.2049922,67.9623476 L89.6200162,67.9623476 L89.6200162,35.9575497 L64.2049922,35.9575497 L64.2049922,35.9575497 Z M66.3968873,40.5730424 L87.219891,40.5730424 L87.219891,44.02362 L66.3968873,44.02362 L66.3968873,40.5730424 L66.3968873,40.5730424 Z M66.3968873,50.1766901 L87.219891,50.1766901 L87.219891,53.6272678 L66.3968873,53.6272678 L66.3968873,50.1766901 L66.3968873,50.1766901 Z M87.3229101,63.2309155 L66.4999064,63.2309155 L66.4999064,59.7803379 L87.3229101,59.7803379 L87.3229101,63.2309155 L87.3229101,63.2309155 Z" id="Shape" fill="#8B572A" sketch:type="MSShapeGroup"></path>
            <path d="M21.5309859,0.458006675 L21.5309859,32.4628046 L46.9460099,32.4628046 L46.9460099,0.458006675 L21.5309859,0.458006675 L21.5309859,0.458006675 Z M23.722881,5.07625982 L44.5458847,5.07625982 L44.5458847,8.52683748 L23.722881,8.52683748 L23.722881,5.07625982 L23.722881,5.07625982 Z M23.722881,14.6799076 L44.5458847,14.6799076 L44.5458847,18.1304852 L23.722881,18.1304852 L23.722881,14.6799076 L23.722881,14.6799076 Z M44.6489038,27.734133 L23.8259001,27.734133 L23.8259001,24.2835553 L44.6489038,24.2835553 L44.6489038,27.734133 L44.6489038,27.734133 Z" id="Shape" fill="#8B572A" sketch:type="MSShapeGroup"></path>
            <path d="M49.9795928,0.458006675 L49.9795928,32.4628046 L75.3946168,32.4628046 L75.3946168,0.458006675 L49.9795928,0.458006675 L49.9795928,0.458006675 Z M52.1714879,5.07625982 L72.9944916,5.07625982 L72.9944916,8.52683748 L52.1714879,8.52683748 L52.1714879,5.07625982 L52.1714879,5.07625982 Z M52.1714879,14.6799076 L72.9944916,14.6799076 L72.9944916,18.1304852 L52.1714879,18.1304852 L52.1714879,14.6799076 L52.1714879,14.6799076 Z M73.0975107,27.734133 L52.274507,27.734133 L52.274507,24.2835553 L73.0975107,24.2835553 L73.0975107,27.734133 L73.0975107,27.734133 Z" id="Shape" fill="#F3A530" sketch:type="MSShapeGroup"></path>
        </g>
    </g>
</svg>