<?xml version="1.0" encoding="UTF-8" standalone="no"?>
<svg width="140px" height="200px" viewBox="0 0 140 200" version="1.1" xmlns="http://www.w3.org/2000/svg" xmlns:xlink="http://www.w3.org/1999/xlink" xmlns:sketch="http://www.bohemiancoding.com/sketch/ns">
    <!-- Generator: Sketch 3.3.3 (12081) - http://www.bohemiancoding.com/sketch -->
    <title>noun_172842_cc</title>
    <desc>Created with Sketch.</desc>
    <defs></defs>
    <g id="Page-1" stroke="none" stroke-width="1" fill="none" fill-rule="evenodd" sketch:type="MSPage">
        <g id="noun_172842_cc" sketch:type="MSLayerGroup" fill="#000000">
            <path d="M44.2,27.9 C44.2,17.4 50.8,8.1 60.8,2.7 L60.8,2.7 C57.7,1.7 54.3,1.1 50.8,1.1 C35.6,1.1 24.1,10.5 24.1,22.9 C24.1,26.3 25.2,29.2 26.5,31.9 L37.5,55.3 C38.3,56.9 39.8,57.9 41.6,57.9 C44.1,57.9 46.1,55.9 46.1,53.4 L46.1,44.4 C47.6,44.6 49.1,44.7 50.7,44.7 C46.5,40 44.2,34.2 44.2,27.9 L44.2,27.9 Z" id="Shape" sketch:type="MSShapeGroup"></path>
            <path d="M80.6,4.9 C96.8,4.9 110,14.6 110,28 C110,31.4 108.9,34.3 107.4,37.4 L93.2,67.7 C93.1,68 92.8,68.1 92.6,68.1 C92.3,68.1 91.9,67.9 91.9,67.4 L91.9,49.3 C88.4,50.4 84.6,51.1 80.5,51.1 C64.3,51.1 51.1,40.8 51.1,28 C51.2,15.2 64.4,4.9 80.6,4.9 L80.6,4.9 Z M80.6,0.9 C62.2,0.9 47.2,13 47.2,28 C47.2,43 62.2,55.1 80.6,55.1 C83.1,55.1 85.6,54.9 88,54.4 L88,67.4 C88,70 90.1,72.1 92.7,72.1 C94.5,72.1 96.1,71.1 96.9,69.4 L111.1,39.1 C112.6,35.8 114,32.2 114,28 C114,20.3 110.4,13.3 103.8,8.3 C97.7,3.5 89.4,0.9 80.6,0.9 L80.6,0.9 L80.6,0.9 Z" id="Shape" sketch:type="MSShapeGroup"></path>
            <g id="noun_134099" transform="translate(0.000000, 76.000000)" sketch:type="MSShapeGroup">
                <g id="Group">
                    <g id="Shape">
                        <path d="M87.5,82.6666667 C128.333333,82.6666667 140,104.740326 140,124 L0,124 C0,104.740326 11.6666667,82.6666667 52.5,82.6666667 L52.5,77.1370026 C42.038476,69.9902746 35,51.4658353 35,36.1666667 C35,13.338897 50.6700337,0 70,0 C89.3299662,0 105,13.338897 105,36.1666667 C105,51.4658353 97.9615245,69.9902746 87.5,77.1370026 L87.5,82.6666667 L87.5,82.6666667 Z"></path>
                    </g>
                </g>
            </g>
        </g>
    </g>
</svg>