<?xml version="1.0" encoding="UTF-8" standalone="no"?>
<svg width="121px" height="113px" viewBox="0 0 121 113" version="1.1" xmlns="http://www.w3.org/2000/svg" xmlns:xlink="http://www.w3.org/1999/xlink" xmlns:sketch="http://www.bohemiancoding.com/sketch/ns">
    <!-- Generator: Sketch 3.3.3 (12081) - http://www.bohemiancoding.com/sketch -->
    <title>noun_144766_cc</title>
    <desc>Created with Sketch.</desc>
    <defs></defs>
    <g id="Page-1" stroke="none" stroke-width="1" fill="none" fill-rule="evenodd" sketch:type="MSPage">
        <g id="noun_144766_cc" sketch:type="MSLayerGroup" transform="translate(0.000000, 0.305664)">
            <path d="M120.701682,85.6448696 L120.701682,0.102003015 L0.304697516,0.102003015 L0.304697516,85.6448696 L57.941552,85.6448696 L57.941552,106.971346 L15.1621978,106.971346 L15.1621978,111.710563 L105.844182,111.710563 L105.844182,106.971346 L63.0648279,106.971346 L63.0648279,85.6448696 L120.701682,85.6448696 L120.701682,85.6448696 Z" id="Shape" fill="#000000" sketch:type="MSShapeGroup"></path>
            <path d="M24.3840945,38.9635823 L60.5031899,10.7652412 L96.6222854,38.7266215 L93.8044836,38.7266215 L27.2018963,38.7266215 L24.3840945,38.7266215 L24.3840945,38.9635823 Z" id="Path" fill="#8B572A" sketch:type="MSShapeGroup"></path>
            <path d="M46.6703449,74.7446705 L30.5320256,74.7446705 L30.5320256,41.8071125 L90.2181904,41.8071125 L90.2181904,74.7446705 L74.0798712,74.7446705 L74.0798712,52.4703507 L46.6703449,52.4703507 L46.6703449,74.7446705 Z" id="Path" fill="#F3A530" sketch:type="MSShapeGroup"></path>
        </g>
    </g>
</svg>