<?xml version="1.0" encoding="UTF-8" standalone="no"?>
<svg width="122px" height="113px" viewBox="0 0 122 113" version="1.1" xmlns="http://www.w3.org/2000/svg" xmlns:xlink="http://www.w3.org/1999/xlink" xmlns:sketch="http://www.bohemiancoding.com/sketch/ns">
    <!-- Generator: Sketch 3.3.3 (12081) - http://www.bohemiancoding.com/sketch -->
    <title>noun_21699_cc</title>
    <desc>Created with Sketch.</desc>
    <defs></defs>
    <g id="Page-1" stroke="none" stroke-width="1" fill="none" fill-rule="evenodd" sketch:type="MSPage">
        <g id="noun_21699_cc" sketch:type="MSLayerGroup" transform="translate(0.882812, 0.305664)">
            <rect id="Rectangle-path" fill="#000000" sketch:type="MSShapeGroup" x="35.75" y="86.4" width="9.625" height="12.8"></rect>
            <rect id="Rectangle-path" fill="#000000" sketch:type="MSShapeGroup" x="19.25" y="102.4" width="26.125" height="3.2"></rect>
            <path d="M45.375,75.2 L8.624,75.2 C7.247625,75.2 6.875,74.8128 6.875,73.2112 L6.875,19.0752 C6.875,17.4736 7.247625,17.6 8.624,17.6 L45.375,17.6 L45.375,9.6 L3.6795,9.6 C1.64725,9.6 0,10.9568 0,13.3216 L0,78.9648 C0,81.3296 1.64725,83.2 3.6795,83.2 L45.375,83.2 L45.375,75.2 L45.375,75.2 Z" id="Shape" fill="#000000" sketch:type="MSShapeGroup"></path>
            <path d="M77,40 L61.875,40 L61.875,22.4 L77,22.4 L77,40 L77,40 Z M64.625,36.8 L74.25,36.8 L74.25,25.6 L64.625,25.6 L64.625,36.8 L64.625,36.8 Z" id="Shape" fill="#000000" sketch:type="MSShapeGroup"></path>
            <path d="M81.125,25.6 L110,25.6 L110,28.8 L99.2797965,28.8 L81.125,28.8 L81.125,25.6 Z" id="Rectangle-path" fill="#8B572A" sketch:type="MSShapeGroup"></path>
            <rect id="Rectangle-path" fill="#8B572A" sketch:type="MSShapeGroup" x="81.125" y="32" width="24.75" height="3.2"></rect>
            <path d="M77,67.2 L61.875,67.2 L61.875,49.6 L77,49.6 L77,67.2 L77,67.2 Z M64.625,64 L74.25,64 L74.25,52.8 L64.625,52.8 L64.625,64 L64.625,64 Z" id="Shape" fill="#000000" sketch:type="MSShapeGroup"></path>
            <rect id="Rectangle-path" fill="#8B572A" sketch:type="MSShapeGroup" x="81.125" y="56" width="22" height="3.2"></rect>
            <rect id="Rectangle-path" fill="#8B572A" sketch:type="MSShapeGroup" x="81.125" y="62.4" width="26.125" height="3.2"></rect>
            <path d="M77,94.4 L61.875,94.4 L61.875,76.8 L77,76.8 L77,94.4 L77,94.4 Z M64.625,91.2 L74.25,91.2 L74.25,80 L64.625,80 L64.625,91.2 L64.625,91.2 Z" id="Shape" fill="#000000" sketch:type="MSShapeGroup"></path>
            <rect id="Rectangle-path" fill="#8B572A" sketch:type="MSShapeGroup" x="81.125" y="80" width="23.375" height="3.2"></rect>
            <rect id="Rectangle-path" fill="#8B572A" sketch:type="MSShapeGroup" x="81.125" y="49.6" width="27.5" height="3.2"></rect>
            <rect id="Rectangle-path" fill="#8B572A" sketch:type="MSShapeGroup" x="81.125" y="86.4" width="15.125" height="3.2"></rect>
            <path d="M9.625,29.0192 L9.625,72 L45.375,72 L45.375,57.56 C45.375,57.56 33.70675,65.144 25.928375,53.0752 C23.601875,49.4656 24.90675,42.5152 20.106625,36.1552 C16.67325,31.6048 9.625,29.0192 9.625,29.0192 L9.625,29.0192 Z" id="Shape" fill="#F6A623" sketch:type="MSShapeGroup"></path>
            <path d="M116.50375,3.2 L100.89475,3.2 C100.89475,1.6 99.730125,0 98.29325,0 L76.181875,0 C74.745,0 73.580375,1.6 73.580375,3.2 L55.37125,3.2 C53.216625,3.2 50.875,4.9536 50.875,7.328 L50.875,107.6976 C50.875,110.0736 53.216625,112 55.37125,112 L116.50375,112 C118.658375,112 121,110.0736 121,107.6992 L121,7.328 C121,4.9536 118.658375,3.2 116.50375,3.2 L116.50375,3.2 Z M95.693125,4.5408 C96.410875,4.5408 96.993875,5.2176 96.993875,6.0544 C96.993875,6.8896 96.41225,7.568 95.693125,7.568 C94.974,7.568 94.392375,6.8896 94.392375,6.0544 C94.392375,5.2176 94.974,4.5408 95.693125,4.5408 L95.693125,4.5408 Z M78.783375,4.5408 C79.501125,4.5408 80.084125,5.2176 80.084125,6.0544 C80.084125,6.8896 79.5025,7.568 78.783375,7.568 C78.06425,7.568 77.482625,6.8896 77.482625,6.0544 C77.482625,5.2176 78.065625,4.5408 78.783375,4.5408 L78.783375,4.5408 Z M115.5,104.432 C115.5,104.432 115.203,105.6 113.90225,105.6 L57.97275,105.6 C56.672,105.6 56.375,104.432 56.375,104.432 L56.375,10.5952 C56.375,9.0816 57.97275,9.6 57.97275,9.6 L73.580375,9.6 C73.580375,11.2 74.745,12.8 76.181875,12.8 L98.29325,12.8 C99.730125,12.8 100.89475,11.2 100.89475,9.6 L113.900875,9.6 C113.900875,9.6 115.498625,9.0816 115.498625,10.5952 L115.498625,104.432 L115.5,104.432 Z" id="Shape" fill="#000000" sketch:type="MSShapeGroup"></path>
        </g>
    </g>
</svg>