<?xml version="1.0" encoding="UTF-8" standalone="no"?>
<svg width="368px" height="106px" viewBox="0 0 368 106" version="1.1" xmlns="http://www.w3.org/2000/svg" xmlns:xlink="http://www.w3.org/1999/xlink" xmlns:sketch="http://www.bohemiancoding.com/sketch/ns">
    <!-- Generator: Sketch 3.3.3 (12081) - http://www.bohemiancoding.com/sketch -->
    <title>Slice 1</title>
    <desc>Created with Sketch.</desc>
    <defs></defs>
    <g id="Page-1" stroke="none" stroke-width="1" fill="none" fill-rule="evenodd" sketch:type="MSPage">
        <g id="noun_31668_cc" sketch:type="MSLayerGroup" transform="translate(277.000000, 0.000000)" fill="#F6A623">
            <path d="M45.222257,70.6134941 L38.3470369,70.6134941 L38.3470369,75.2538625 L38.3470369,84.8477531 L29.2648439,84.8477531 L29.2648439,75.2538625 L29.2648439,70.6134941 L0,70.6134941 L21.3027881,41.050033 L12.333618,41.050033 L27.9004967,19.1511729 L21.4329662,19.1511729 L33.566776,0.343336939 L45.7005858,19.1511729 L39.2340644,19.1511729 L54.8009431,41.050033 L45.831773,41.050033 L53.2357785,51.0512424 L46.3716589,60.759007 L51.9541802,60.759007 L45.222257,70.6134941 L45.222257,70.6134941 Z M76.9665396,56.379235 L82.8003348,56.379235 L72.6746988,42.144976 L76.8807633,42.144976 L68.9883376,29.9122727 L61.0969211,42.144976 L65.3029856,42.144976 L55.1783587,56.379235 L61.012154,56.379235 L47.1567641,74.9932661 L64.5844832,74.9932661 L64.5844832,88.1325821 L73.6666761,88.1325821 L73.6666761,74.9932661 L90.8219295,74.9932661 L76.9665396,56.379235 Z" id="Shape" sketch:type="MSShapeGroup"></path>
        </g>
        <path d="M318.696921,91 L289,91 L289,98.5 L289,106 L307.5,106 L307.5,98.5 L316.75,98.5 L316.75,106 L335.25,106 L335.25,98.5 L344.5,98.5 L344.5,106 L363,106 L363,98.5 L363,91 L318.696921,91 Z" id="Shape" fill="#8B572A" sketch:type="MSShapeGroup"></path>
        <text id="MBAO-BOIS" fill="#000000" sketch:type="MSTextLayer" font-family="DIN Alternate" font-size="42" font-weight="bold">
            <tspan x="51" y="53">MBAO-BOIS</tspan>
            <tspan x="262.148438" y="53" font-size="52"></tspan>
            <tspan x="51" y="101" font-family="Hiragino Kaku Gothic ProN" font-size="20" font-weight="313">La palette sénégalaise</tspan>
            <tspan x="270.48" y="101" font-family="Lucida Calligraphy" font-size="20" font-style="italic" font-weight="normal"></tspan>
        </text>
    </g>
</svg>