<?xml version="1.0" encoding="UTF-8" standalone="no"?>
<svg width="100px" height="111px" viewBox="0 0 100 111" version="1.1" xmlns="http://www.w3.org/2000/svg" xmlns:xlink="http://www.w3.org/1999/xlink" xmlns:sketch="http://www.bohemiancoding.com/sketch/ns">
    <!-- Generator: Sketch 3.3.3 (12081) - http://www.bohemiancoding.com/sketch -->
    <title>noun_106793_cc</title>
    <desc>Created with Sketch.</desc>
    <defs></defs>
    <g id="Page-1" stroke="none" stroke-width="1" fill="none" fill-rule="evenodd" sketch:type="MSPage">
        <g id="noun_106793_cc" sketch:type="MSLayerGroup" transform="translate(-0.078125, -0.694336)">
            <g id="noun_175868_cc" sketch:type="MSShapeGroup">
                <g id="Group">
                    <g id="Shape" fill="#000000">
                        <path d="M58.3333333,23.6444444 C54.4444444,22.7111111 51.5277778,20.2222222 49.3055556,16.4888889 C48.1944444,14.6222222 46.8055556,12.9111111 45.2777778,11.6666667 C42.5,9.48888889 39.5833333,7.62222222 36.5277778,5.91111111 C27.2222222,0.933333333 17.6388889,-0.311111111 7.77777778,3.26666667 C7.63888889,3.26666667 7.36111111,3.42222222 7.22222222,3.57777778 C6.11111111,4.66666667 6.66666667,6.53333333 8.19444444,6.68888889 L8.61111111,6.68888889 C12.7777778,6.22222222 16.8055556,6.53333333 20.6944444,8.71111111 C27.7777778,12.9111111 29.4444444,19.9111111 25,27.3777778 C24.1666667,28.7777778 23.3333333,30.0222222 22.5,31.4222222 C21.9444444,32.3555556 21.9444444,33.2888889 22.2222222,34.2222222 C22.5,34.8444444 22.5,35.4666667 22.0833333,35.9333333 C15.2777778,47.1333333 8.47222222,58.1777778 1.66666667,69.2222222 C1.66666667,69.3777778 1.52777778,69.3777778 1.52777778,69.5333333 C0.416666667,71.0888889 0.555555556,73.1111111 1.66666667,74.5111111 C3.33333333,76.5333333 5.13888889,78.2444444 7.5,79.1777778 C9.16666667,79.8 10.1388889,79.6444444 11.3888889,77.7777778 C18.3333333,66.4222222 25.4166667,55.0666667 32.3611111,43.7111111 C32.6388889,43.2444444 33.0555556,42.9333333 33.6111111,42.9333333 C34.1666667,42.9333333 34.7222222,42.6222222 35.1388889,42.1555556 C36.3888889,40.7555556 37.6388889,39.3555556 39.0277778,38.5777778 C40.9722222,37.3333333 43.3333333,36.4 45.4166667,36.7111111 C46.8055556,36.8666667 48.0555556,38.1111111 49.3055556,39.3555556 C50.1388889,40.1333333 51.25,39.9777778 51.9444444,38.8888889 L59.5833333,26.7555556 C60.1388889,25.6666667 59.5833333,23.9555556 58.3333333,23.6444444 L58.3333333,23.6444444 Z"></path>
                        <path d="M63.3333333,25.6666667 C63.8888889,24.7333333 65,24.5777778 65.8333333,25.2 C66.25,25.5111111 66.6666667,25.8222222 67.0833333,26.1333333 C68.6111111,27.5333333 69.0277778,29.2444444 67.9166667,31.1111111 C64.8611111,36.0888889 61.9444444,40.9111111 58.75,45.7333333 C57.2222222,48.0666667 55.6944444,47.9111111 53.0555556,45.5777778 C52.3611111,44.9555556 52.2222222,43.7111111 52.7777778,42.9333333 L63.3333333,25.6666667 L63.3333333,25.6666667 Z"></path>
                    </g>
                    <path d="M71.9444444,82.6 C70,82.6 68.4722222,80.8888889 68.4722222,78.7111111 L68.4722222,66.8888889 C68.4722222,64.7111111 70,63 71.9444444,63 L95.8333333,63 C97.7777778,63 99.3055556,64.7111111 99.3055556,66.8888889 L99.3055556,78.7111111 C99.3055556,80.8888889 97.7777778,82.6 95.8333333,82.6 L71.9444444,82.6 Z" id="Shape" fill="#8B572A"></path>
                    <path d="M57.5,82.6 L33.6111111,82.6 C31.6666667,82.6 30.1388889,80.8888889 30.1388889,78.7111111 L30.1388889,66.8888889 C30.1388889,64.7111111 31.6666667,63 33.6111111,63 L57.5,63 C59.4444444,63 60.9722222,64.7111111 60.9722222,66.8888889 L60.9722222,78.7111111 C60.9722222,80.8888889 59.4444444,82.6 57.5,82.6 L57.5,82.6 Z" id="Shape" fill="#8B572A"></path>
                    <path d="M74.4444444,110.755556 L50.5555556,110.755556 C48.6111111,110.755556 47.0833333,109.044444 47.0833333,106.866667 L47.0833333,95.0444444 C47.0833333,92.8666667 48.6111111,91.1555556 50.5555556,91.1555556 L74.4444444,91.1555556 C76.3888889,91.1555556 77.9166667,92.8666667 77.9166667,95.0444444 L77.9166667,106.866667 C77.9166667,109.044444 76.3888889,110.755556 74.4444444,110.755556 L74.4444444,110.755556 Z" id="Shape" fill="#F3A530"></path>
                    <path d="M37.6388889,110.755556 L13.75,110.755556 C11.8055556,110.755556 10.2777778,109.044444 10.2777778,106.866667 L10.2777778,95.0444444 C10.2777778,92.8666667 11.8055556,91.1555556 13.75,91.1555556 L37.6388889,91.1555556 C39.5833333,91.1555556 41.1111111,92.8666667 41.1111111,95.0444444 L41.1111111,106.866667 C41.1111111,109.044444 39.5833333,110.755556 37.6388889,110.755556 L37.6388889,110.755556 Z" id="Shape" fill="#F3A530"></path>
                </g>
            </g>
        </g>
    </g>
</svg>