<?xml version="1.0" encoding="UTF-8" standalone="no"?>
<svg width="200px" height="200px" viewBox="0 0 200 200" version="1.1" xmlns="http://www.w3.org/2000/svg" xmlns:xlink="http://www.w3.org/1999/xlink" xmlns:sketch="http://www.bohemiancoding.com/sketch/ns">
    <!-- Generator: Sketch 3.3.3 (12081) - http://www.bohemiancoding.com/sketch -->
    <title>noun_164937_cc</title>
    <desc>Created with Sketch.</desc>
    <defs></defs>
    <g id="Page-1" stroke="none" stroke-width="1" fill="none" fill-rule="evenodd" sketch:type="MSPage">
        <g id="noun_164937_cc" sketch:type="MSLayerGroup" fill="#8B572A">
            <path d="M199.858762,13.0501834 L110.874065,1.74371464 L104.796262,0.977707945 L100.117173,0.379593125 L0.282184579,8.69548777 L0.309521028,9.99140321 L0.304964953,9.99140321 L0.65578271,23.5644123 L22.0943925,32.2003509 L0.967873832,35.7155871 L1.04304907,38.3388977 L1.35058411,50.038863 L15.3627921,58.5908556 L1.63533879,61.9959128 L1.73329439,64.6454565 L2.02943925,76.0883374 L12.4058995,84.5196577 L2.29369159,87.840769 L2.4098715,90.5480255 L2.71057243,102.053866 L99.0373832,199.562321 L196.662675,106.382328 L197.056776,94.876488 L197.198014,92.1797247 L187.067582,88.3864176 L197.555666,80.4220465 L197.949766,68.9949055 L198.068224,66.3348686 L184.304322,62.3107101 L198.450935,54.3830654 L198.854147,42.6778534 L198.952103,40.0650361 L177.745853,35.5949148 L199.359871,27.9138613 L199.783586,15.6577541 L199.888376,15.631521 L199.858762,13.0501834 L199.858762,13.0501834 Z M59.5931659,26.1824763 L73.5484229,23.9946353 C78.3573598,22.9400644 82.0386682,22.793159 85.2848715,22.6619935 C90.1872079,22.4573752 94.4220794,22.2842367 100.344977,19.0208383 C103.714194,17.1635344 106.083353,15.6420143 107.985514,14.4143049 C111.525584,12.1425179 113.657827,10.7731498 118.284521,9.79727823 C125.264428,8.3072378 133.586098,12.2999166 133.706834,12.3523828 C137.246904,13.7952036 145.823715,9.57692013 147.076636,8.94207897 L161.189077,10.7364234 C153.475643,12.4625618 142.310981,15.3114771 139.31764,17.8928148 C137.064661,19.8393113 132.934579,18.5014228 128.94118,17.210754 C125.597021,16.1247034 122.143516,15.0019265 119.377979,15.6210278 C116.268458,16.3083352 115.384579,17.9977472 114.471086,20.3010139 C113.899299,21.7490814 113.309287,23.2443684 110.156484,24.2254866 C103.891881,26.1719831 83.7107477,31.3713847 80.1911799,32.2790502 L59.5931659,26.1824763 L59.5931659,26.1824763 Z M109.450292,4.15716041 L116.39375,5.03859277 C112.680549,6.02495756 110.587033,7.37333922 107.381834,9.43001474 C105.497897,10.6419842 103.151519,12.1477645 99.8255841,13.984082 C94.1373248,17.1215615 90.2122664,17.2789601 85.2484229,17.4835783 C81.961215,17.6147439 78.2366238,17.7721425 73.370736,18.8372066 L48.1186916,22.7984056 L29.3886682,17.2684669 C41.0180491,16.0879771 56.2740654,14.5297306 58.1238318,14.2621529 C61.3381425,13.8004502 82.7380257,11.8119808 88.9160631,12.3838625 C92.7135514,12.7563726 98.2491822,9.77629174 103.131016,7.16872099 C105.557126,5.87280555 107.880724,4.66083605 109.450292,4.15716041 L109.450292,4.15716041 Z M134.312792,7.31562639 L135.684171,7.49401151 C135.157944,7.49925813 134.702336,7.4415453 134.312792,7.31562639 L134.312792,7.31562639 Z M100.108061,2.96617739 L100.859813,3.06586319 C96.7251752,5.24845762 92.0574766,7.48876489 89.0026285,7.2211872 C82.6218458,6.62307238 61.3313084,8.62728169 57.9848715,9.10472422 C55.1828855,9.50871406 20.1853972,13.0239503 16.3013435,13.4174469 L7.17096963,10.7206836 L100.108061,2.96617739 L100.108061,2.96617739 Z M194.922255,93.9530827 L99.1307827,176.099431 L4.54439252,89.7190594 L14.6930491,86.3874549 L99.2127921,155.081467 L184.750818,90.1440357 L194.922255,93.9530827 L194.922255,93.9530827 Z M195.2184,68.1134731 L99.3084696,131.587097 L4.4578271,63.9004363 L18.3948598,60.4429129 L99.3973131,109.892318 L181.249474,64.0211086 L195.2184,68.1134731 L195.2184,68.1134731 Z M194.99743,41.8279008 L99.4907126,85.7526137 L4.89293224,37.6568369 L26.6481893,34.0314217 L99.5841121,63.391514 L173.169276,37.2318606 L194.99743,41.8279008 L194.99743,41.8279008 Z M99.6820678,38.0188538 L89.5926402,35.0440196 C96.9598131,33.1185096 106.488843,30.5843915 110.459463,29.3514355 C114.131659,28.2076721 115.16361,26.2401891 116.136332,23.7847704 C116.678505,22.4101557 117.111332,21.3188584 119.596671,20.7679632 C122.0934,20.2118214 125.419334,21.2926253 128.631367,22.3314563 C133.100876,23.7742772 137.319801,25.1488919 140.110397,22.7406928 C143.552512,19.7711052 160.517056,15.9200852 168.973131,14.3041259 L179.297196,13.0396901 L192.924416,14.7710751 L99.6820678,38.0188538 L99.6820678,38.0188538 Z" id="Shape" sketch:type="MSShapeGroup"></path>
        </g>
    </g>
</svg>