<?xml version="1.0" encoding="UTF-8" standalone="no"?>
<svg width="62px" height="56px" viewBox="0 0 62 56" version="1.1" xmlns="http://www.w3.org/2000/svg" xmlns:xlink="http://www.w3.org/1999/xlink" xmlns:sketch="http://www.bohemiancoding.com/sketch/ns">
    <!-- Generator: Sketch 3.3.3 (12081) - http://www.bohemiancoding.com/sketch -->
    <title>noun_40662_cc</title>
    <desc>Created with Sketch.</desc>
    <defs></defs>
    <g id="Page-1" stroke="none" stroke-width="1" fill="none" fill-rule="evenodd" sketch:type="MSPage">
        <g id="noun_40662_cc" sketch:type="MSLayerGroup" transform="translate(-1.000000, 0.000000)" fill="#000000">
            <g id="Group" sketch:type="MSShapeGroup">
                <path d="M29.5545326,1.17528205 C24.7350326,18.214359 19.7594022,35.0890256 15.1384891,52.3348718 C11.0592391,51.3785641 7.42098913,49.9627692 3.49444565,48.846359 C3.7128913,47.9151795 4.06144565,47.1168205 4.23058696,46.1353846 C7.36278261,46.7284103 9.91291304,47.9316923 12.9184239,48.6525128 C17.8495435,32.8913846 22.1417609,16.4661538 26.7832174,0.401333333 C27.7378043,0.628205128 28.5307826,1.02307692 29.5545326,1.17528205 L29.5545326,1.17528205 Z" id="Shape"></path>
                <g transform="translate(17.804348, 7.897436)" id="Shape">
                    <path d="M21.7281522,25.0564103 C21.2830435,24.6895385 20.2490217,24.934359 19.5094565,24.8618462 L19.5094565,30.2902564 L21.7281522,30.2902564 L21.7281522,25.0564103 L21.7281522,25.0564103 Z M32.0820652,24.4748718 L32.0820652,4.12820513 C28.0082935,4.12102564 23.6318478,3.46051282 20.0641304,3.93435897 C14.4420652,4.68102564 12.873913,10.0010256 11.381087,15.1774359 C11.8193478,15.7733333 13.6751087,17.4102564 14.805,18.9035897 C15.7904022,20.2317949 16.2019565,21.4594872 14.5242391,21.7603077 C12.401413,22.1487179 12.285,18.9035897 10.2717391,18.6666667 C9.37467391,22.694359 8.16945652,26.4061538 7.12858696,30.2902564 L16.0033696,30.2902564 C16.1951087,27.5189744 15.5856522,23.9141538 16.3731522,21.7603077 C17.84475,20.7192821 20.9132609,21.3517949 23.2065978,21.1787692 C23.0901848,20.3387692 23.4531196,18.9962051 23.0217065,18.4721026 C21.9527609,19.8146667 17.7214891,20.4033846 16.3998587,18.8597949 C16.1396413,18.5582564 15.995837,18.1705641 16.0026848,17.6967179 C16.0506196,15.2987692 18.3240978,16.4259487 20.2551848,15.9521026 C22.6101522,15.3705641 23.5421413,12.5633846 25.9799674,12.2690256 C30.3345,11.7377436 30.6296413,18.0054359 29.8626848,22.1558974 C29.6771087,23.1466667 28.8149674,23.7633846 28.9375435,24.4741538 C29.9866304,24.4748718 31.0343478,24.4748718 32.0820652,24.4748718 L32.0820652,24.4748718 Z M34.8554348,1.02666667 L34.8554348,24.4748718 L44.46225,24.4748718 C43.3529022,32.5876923 48.0991304,45.6830769 38.360837,44.6276923 C41.2170652,31.5466667 21.0974674,31.6321026 24.1317391,44.6276923 L13.9695652,44.6276923 C14.3872826,37.1107692 2.88978261,37.3261538 3.24586957,44.6276923 L0.479347826,44.6276923 C1.82836957,38.8912821 3.99913043,31.1733333 6.20413043,23.3117949 C9.17608696,12.7507692 10.2169565,1.51487179 21.3583696,1.02666667 C26.418913,0.811282051 29.4319565,1.05538462 34.8554348,1.02666667 L34.8554348,1.02666667 Z"></path>
                    <g>
                        <path d="M39.4154022,45.0469744 C39.0723261,45.0469744 38.7059674,45.0261538 38.325913,44.9845128 L37.9410652,44.9435897 L38.0273478,44.548 C38.6107826,41.8765128 38.2389457,39.5690256 36.9515543,37.8761026 C35.6819674,36.2054359 33.5324348,35.2082051 31.2014348,35.2082051 C28.8594783,35.2082051 26.7113152,36.2104615 25.4547391,37.8890256 C24.185837,39.5826667 23.8434457,41.8836923 24.4645435,44.5422564 L24.5679457,44.9866667 L13.6066304,44.9866667 L13.6278587,44.6068718 C13.7079783,43.1609231 13.3169674,41.9152821 12.495913,41.0027692 C11.5961087,40.0026667 10.2094239,39.4297436 8.69126087,39.4297436 C7.12927174,39.4297436 5.69328261,40.026359 4.75033696,41.0659487 C3.92175,41.9798974 3.51978261,43.2054359 3.58826087,44.6097436 L3.60675,44.9866667 L0.0424565217,44.9866667 L0.147228261,44.5415385 C1.4688587,38.9214359 3.54032609,31.5373333 5.733,23.7195897 L5.87611957,23.2105641 C6.29315217,21.728 6.67663043,20.2138462 7.04778261,18.7492308 C9.34728261,9.67220513 11.519413,1.09846154 21.3446739,0.668410256 C22.7861413,0.607384615 24.1488587,0.578666667 25.631413,0.578666667 C26.8968913,0.578666667 28.1027935,0.599487179 29.3703261,0.62174359 C30.7686522,0.645435897 32.2416196,0.671282051 33.950837,0.671282051 L35.1978261,0.666974359 L35.1978261,24.1158974 L44.8573696,24.1158974 L44.8012174,24.5258462 C44.4848478,26.837641 44.6546739,29.6082051 44.818337,32.2875897 C45.1011522,36.8975385 45.3682174,41.2518974 43.3371522,43.5227692 C42.4202283,44.548 41.1376304,45.0462564 39.416087,45.0469744 C39.4167717,45.0469744 39.416087,45.0469744 39.4154022,45.0469744 L39.4154022,45.0469744 Z M38.7765,44.3053333 C38.997,44.3204103 39.211337,44.3290256 39.4154022,44.3290256 L39.4167717,44.3290256 C40.9390435,44.3283077 42.0579783,43.904 42.8386304,43.0316923 C44.6663152,40.9869744 44.408837,36.7833846 44.1362935,32.3328205 C43.9794783,29.7718974 43.8171848,27.1276923 44.0732935,24.8338462 L34.5130435,24.8338462 L34.5130435,1.38707692 L33.950837,1.38851282 C32.2375109,1.38851282 30.7611196,1.36266667 29.3586848,1.33897436 C28.0952609,1.3174359 26.8927826,1.29661538 25.631413,1.29661538 C24.1584457,1.29661538 22.8053152,1.32533333 21.37275,1.38635897 C12.0521739,1.79415385 10.0395978,9.73682051 7.70928261,18.9337436 C7.33744565,20.4026667 6.95259783,21.9211282 6.5321413,23.4130256 L6.38970652,23.9220513 C4.2566087,31.5272821 2.23855435,38.7211282 0.916923913,44.2687179 L2.89526087,44.2687179 C2.9021087,42.8198974 3.36844565,41.5484103 4.25318478,40.572 C5.32418478,39.3902564 6.9416413,38.7117949 8.69057609,38.7117949 C10.3963696,38.7117949 11.9645217,39.3672821 12.99375,40.5109744 C13.8730109,41.4873846 14.3290761,42.7811282 14.3222283,44.2687179 L23.7023804,44.2687179 C23.0306087,40.8843077 23.9769783,38.6988718 24.9151304,37.4460513 C26.3004457,35.5951795 28.6499348,34.4902564 31.20075,34.4902564 C33.7385543,34.4902564 36.0887283,35.5887179 37.4870543,37.4288205 C38.8422391,39.2114872 39.2852935,41.5821538 38.7765,44.3053333 L38.7765,44.3053333 Z"></path>
                        <path d="M16.3217935,30.6492308 L6.67663043,30.6492308 L6.79852174,30.1933333 C7.1621413,28.8349744 7.54630435,27.4988718 7.92978261,26.1627692 C8.631,23.7217436 9.35618478,21.196 9.93825,18.5848205 L10.007413,18.2739487 L10.3094022,18.3091282 C11.4036848,18.438359 12.0021848,19.3135385 12.5301522,20.0860513 C13.0848261,20.8958974 13.554587,21.5664615 14.464663,21.406359 C14.7851413,21.3482051 15.1877935,21.2218462 15.2898261,20.9447179 C15.3637826,20.7444103 15.3637826,20.2418462 14.5338261,19.1225641 C13.869587,18.2445128 12.9451304,17.3126154 12.2028261,16.5652308 C11.6974565,16.0562051 11.2982283,15.6534359 11.1085435,15.3956923 L11.0010326,15.2492308 L11.0523913,15.0726154 C12.5013913,10.0512821 14.1428152,4.35866667 20.0209891,3.57825641 C20.9016196,3.46123077 21.8870217,3.40451282 23.032663,3.40451282 C24.4809783,3.40451282 26.0265326,3.49641026 27.5220978,3.58471795 C29.0293043,3.67446154 30.5878696,3.76635897 32.0820652,3.76923077 L32.4237717,3.76994872 L32.4237717,24.8338462 L28.6526739,24.8338462 L28.6013152,24.5387692 C28.5116087,24.0189744 28.7827826,23.5767179 29.0443696,23.1481026 C29.2456957,22.82 29.4538696,22.4796923 29.5271413,22.0869744 C30.0318261,19.3523077 30.1016739,15.497641 28.6348696,13.6331282 C27.9945978,12.8204103 27.1516304,12.4887179 26.0196848,12.6258462 C24.8535,12.7665641 24.0495652,13.5527179 23.1990652,14.3841026 C22.3855435,15.1803077 21.5425761,16.0037949 20.33325,16.3024615 C19.8128152,16.4302564 19.2848478,16.4474872 18.8363152,16.4474872 L18.024163,16.4395897 C16.8031957,16.4395897 16.3656196,16.6312821 16.3443913,17.7053333 C16.338913,18.0678974 16.4436848,18.3766154 16.6532283,18.62 C17.08875,19.1290256 17.996087,19.4205128 19.1430978,19.4205128 C20.6448261,19.4205128 22.232837,18.9035897 22.7580652,18.2430769 L23.0162283,17.9178462 L23.2805543,18.2380513 C23.64075,18.676 23.5955543,19.4061538 23.5517283,20.1118974 C23.5291304,20.4744615 23.5058478,20.8492308 23.5441957,21.1277949 L23.5969239,21.5097436 L23.2298804,21.5377436 C22.4718261,21.5937436 21.634337,21.5664615 20.7954783,21.5363077 C20.3175,21.5205128 19.838837,21.5032821 19.3759239,21.5032821 C18.4713261,21.5032821 17.3565,21.5607179 16.6525435,21.9979487 C16.2183913,23.2974359 16.2800217,25.1913846 16.3402826,27.0257436 C16.3765761,28.1371282 16.4135543,29.2865641 16.3430217,30.3161026 L16.3217935,30.6492308 L16.3217935,30.6492308 Z M7.58122826,29.9312821 L15.680837,29.9312821 C15.7226087,29.0237949 15.6897391,28.0222564 15.6575543,27.0501538 C15.5938696,25.0923077 15.5281304,23.0684103 16.0533587,21.6317949 L16.0923913,21.5262564 L16.1820978,21.4630769 C17.0264348,20.8657436 18.2713696,20.7846154 19.3779783,20.7846154 C19.8484239,20.7846154 20.3339348,20.8018462 20.8201304,20.818359 C21.5097065,20.8420513 22.1992826,20.8678974 22.8409239,20.8398974 C22.8368152,20.5893333 22.8539348,20.3236923 22.8696848,20.0645128 C22.8888587,19.7435897 22.9121413,19.3738462 22.8826957,19.0902564 C21.9828913,19.7794872 20.4147391,20.1370256 19.1444674,20.1370256 C17.7838043,20.1370256 16.7189674,19.7687179 16.1458043,19.0995897 C15.8171087,18.718359 15.6527609,18.2437949 15.6609783,17.6916923 C15.7006957,15.7209231 17.1565435,15.7209231 18.0255326,15.7209231 L18.8376848,15.7288205 C19.2471848,15.7288205 19.7258478,15.7137436 20.1778043,15.6031795 C21.2097717,15.3483077 21.9500217,14.6246154 22.7327283,13.8585641 C23.6270543,12.9841026 24.5515109,12.0802051 25.9416196,11.9129231 C27.3132391,11.745641 28.3801304,12.1792821 29.1642065,13.1765128 C30.7823478,15.2341538 30.7337283,19.3365128 30.2002826,22.2241026 C30.1009891,22.7525128 29.84625,23.1689231 29.6216413,23.5365128 C29.4922174,23.7475897 29.37375,23.9407179 29.3128043,24.1158974 L31.7396739,24.1158974 L31.7396739,4.48502564 C30.3331304,4.47066667 28.8861848,4.38451282 27.48375,4.30123077 C25.9984565,4.21292308 24.4624891,4.12174359 23.0333478,4.12174359 C21.9164674,4.12174359 20.9591413,4.17702564 20.1072717,4.28974359 C14.7372065,5.00266667 13.2026087,10.1044103 11.7631957,15.0941538 C11.960413,15.3231795 12.2986957,15.6642051 12.67875,16.0475897 C13.4361196,16.8107692 14.3783804,17.7606154 15.0734348,18.6795897 C15.8890109,19.7780513 16.1601848,20.5792821 15.929413,21.2046154 C15.7541087,21.6784615 15.3007826,21.9850256 14.5817609,22.1142564 C13.2532826,22.3569231 12.5630217,21.3661538 11.9741087,20.5046154 C11.5495435,19.8835897 11.1462065,19.2934359 10.5285326,19.0881026 C9.95605435,21.6002051 9.25963043,24.0232821 8.58648913,26.3702564 C8.24615217,27.5527179 7.90718478,28.7344615 7.58122826,29.9312821 L7.58122826,29.9312821 Z"></path>
                        <path d="M22.0705435,30.6492308 L19.1670652,30.6492308 L19.1670652,24.4684103 L19.5409565,24.5050256 C19.7799457,24.5294359 20.0511196,24.5150769 20.3216087,24.5043077 C20.4914348,24.4964103 20.6598913,24.4892308 20.8215,24.4892308 C21.2036087,24.4892308 21.6350217,24.5229744 21.93975,24.7735385 L22.0705435,24.8812308 L22.0705435,30.6492308 L22.0705435,30.6492308 Z M19.8518478,29.9312821 L21.3857609,29.9312821 L21.3857609,25.2710769 C21.1974457,25.2071795 20.925587,25.2071795 20.8215,25.2071795 C20.6687935,25.2071795 20.5092391,25.214359 20.3496848,25.2215385 C20.181913,25.2287179 20.0141413,25.2358974 19.8518478,25.2358974 L19.8518478,29.9312821 L19.8518478,29.9312821 Z"></path>
                    </g>
                </g>
                <path d="M44.3430978,13.1901538 C45.9290543,12.992 47.4437935,13.7882051 47.6670326,15.708 C48.2915543,21.0638974 40.5617283,20.0372308 41.7539348,15.1271795 C41.9388261,14.3733333 42.6961957,13.3962051 44.3430978,13.1901538 L44.3430978,13.1901538 Z" id="Shape"></path>
                <path d="M47.8519239,45.3578462 C54.7264565,43.7912821 55.7166522,54.0242051 50.441087,55.4349744 C44.578663,57.0015385 41.0075217,46.9179487 47.8519239,45.3578462 L47.8519239,45.3578462 Z" id="Shape"></path>
                <path d="M25.4876087,49.6203077 C27.8028587,48.8930256 29.5435761,50.3447179 29.3696413,52.7211282 C29.0539565,57.0718974 22.5587935,55.8197949 23.6400652,51.3642051 C23.7564783,50.8925128 24.3618261,49.9735385 25.4876087,49.6203077 L25.4876087,49.6203077 Z" id="Shape"></path>
                <path d="M16.9340297,12.5254051 L21.1147239,13.803246 L19.8965921,18.1799692 L15.7158978,16.9021283 L16.9340297,12.5254051 L16.9340297,12.5254051 Z" id="Rectangle-path"></path>
                <path d="M17.5071522,28.7373333 L9.83827174,26.3917949 L12.0727174,18.3557949 L19.7429674,20.6970256 L17.5071522,28.7373333 Z" id="Shape"></path>
                <path d="M9.57639214,30.2309271 L15.763161,32.1208836 L13.9609362,38.6032622 L7.77416736,36.7133057 L9.57639214,30.2309271 L9.57639214,30.2309271 Z" id="Rectangle-path"></path>
                <path d="M2.38891449,39.5344143 L13.4746632,41.7909735 L12.1033814,45.0799171 L1.01763267,42.8233579 L2.38891449,39.5344143 L2.38891449,39.5344143 Z" id="Rectangle-path"></path>
                <path d="M5.54331522,36.8724103 L2.5241087,35.952 L4.7565,27.9116923 L7.7763913,28.8364103 L5.54331522,36.8724103 Z" id="Shape"></path>
            </g>
        </g>
    </g>
</svg>