<?xml version="1.0" encoding="UTF-8" standalone="no"?>
<svg width="100px" height="56px" viewBox="0 0 100 56" version="1.1" xmlns="http://www.w3.org/2000/svg" xmlns:xlink="http://www.w3.org/1999/xlink" xmlns:sketch="http://www.bohemiancoding.com/sketch/ns">
    <!-- Generator: Sketch 3.3.3 (12081) - http://www.bohemiancoding.com/sketch -->
    <title>noun_50884_cc</title>
    <desc>Created with Sketch.</desc>
    <defs></defs>
    <g id="Page-1" stroke="none" stroke-width="1" fill="none" fill-rule="evenodd" sketch:type="MSPage">
        <g id="noun_50884_cc" sketch:type="MSLayerGroup" fill="#000000">
            <path d="M98.8888889,12.4444444 L98.8888889,9.95555556 L100,9.95555556 L100,8.71111111 L98.8888889,8.71111111 L98.8888889,6.22222222 L96.6666667,6.22222222 L96.6666667,8.71111111 L95.5555556,8.71111111 L95.5555556,6.22222222 L93.3333333,6.22222222 L93.3333333,8.71111111 L91.1111111,8.71111111 L91.1111111,7.46666667 L91.1111111,0 L86.6666667,0 L86.6666667,7.46666667 L90,7.46666667 L90,8.71111111 L67.7777778,8.71111111 L67.7777778,9.95555556 L68.1944444,9.95555556 L68.1944444,14.8736 L62.2222222,22.4 L62.2222222,32.3555556 L74.4444444,32.3555556 L74.4444444,22.4 L68.4722222,14.8736 L68.4722222,9.95555556 L82.0422222,9.95555556 L88.8888889,17.6238222 L88.8888889,32.3555556 L85.5555556,32.3555556 L85.5555556,34.8444444 L82.2222222,34.8444444 L82.2222222,44.8 L27.7777778,44.8 L27.7777778,34.8444444 L27.7777778,9.95555556 L23.6111111,9.95555556 L23.6111111,6.20977778 C24.2833333,6.16995556 26.2188889,5.97457778 28.8888889,4.97777778 C27.0477778,4.97777778 24.45,3.27288889 23.6111111,2.68675556 L23.6111111,2.48888889 L23.0555556,2.48888889 L23.0555556,9.95555556 L20,9.95555556 L20,22.4 L13.3333333,22.4 L13.3333333,34.8444444 L0,34.8444444 C0,34.8444444 18.8888889,46.0444444 18.8888889,56 L88.8888889,56 C88.8888889,51.0222222 95.5555556,42.3111111 100,42.3111111 L100,34.8444444 L94.4444444,34.8444444 L94.4444444,32.3555556 L91.1111111,32.3555556 L91.1111111,9.95555556 L93.3333333,9.95555556 L93.3333333,12.4444444 L95.5555556,12.4444444 L95.5555556,9.95555556 L96.6666667,9.95555556 L96.6666667,12.4444444 L98.8888889,12.4444444 L98.8888889,12.4444444 Z M62.6211111,22.4 L68.3333333,15.1635556 L74.08,22.4 L62.6211111,22.4 L62.6211111,22.4 Z M16.6666667,29.8666667 L14.4444444,29.8666667 L14.4444444,27.3777778 L16.6666667,27.3777778 L16.6666667,29.8666667 L16.6666667,29.8666667 Z M16.6666667,26.1333333 L14.4444444,26.1333333 L14.4444444,23.6444444 L16.6666667,23.6444444 L16.6666667,26.1333333 L16.6666667,26.1333333 Z M20,29.8666667 L17.7777778,29.8666667 L17.7777778,27.3777778 L20,27.3777778 L20,29.8666667 L20,29.8666667 Z M20,26.1333333 L17.7777778,26.1333333 L17.7777778,23.6444444 L20,23.6444444 L20,26.1333333 L20,26.1333333 Z M23.3333333,29.8666667 L21.1111111,29.8666667 L21.1111111,27.3777778 L23.3333333,27.3777778 L23.3333333,29.8666667 L23.3333333,29.8666667 Z M23.3333333,26.1333333 L21.1111111,26.1333333 L21.1111111,23.6444444 L23.3333333,23.6444444 L23.3333333,26.1333333 L23.3333333,26.1333333 Z M23.3333333,22.4 L21.1111111,22.4 L21.1111111,19.9111111 L23.3333333,19.9111111 L23.3333333,22.4 L23.3333333,22.4 Z M23.3333333,18.6666667 L21.1111111,18.6666667 L21.1111111,16.1777778 L23.3333333,16.1777778 L23.3333333,18.6666667 L23.3333333,18.6666667 Z M26.6666667,29.8666667 L24.4444444,29.8666667 L24.4444444,27.3777778 L26.6666667,27.3777778 L26.6666667,29.8666667 L26.6666667,29.8666667 Z M26.6666667,26.1333333 L24.4444444,26.1333333 L24.4444444,23.6444444 L26.6666667,23.6444444 L26.6666667,26.1333333 L26.6666667,26.1333333 Z M26.6666667,22.4 L24.4444444,22.4 L24.4444444,19.9111111 L26.6666667,19.9111111 L26.6666667,22.4 L26.6666667,22.4 Z M26.6666667,18.6666667 L24.4444444,18.6666667 L24.4444444,16.1777778 L26.6666667,16.1777778 L26.6666667,18.6666667 L26.6666667,18.6666667 Z M26.6666667,14.9333333 L21.1111111,14.9333333 L21.1111111,11.2 L26.6666667,11.2 L26.6666667,14.9333333 L26.6666667,14.9333333 Z M87.7777778,4.97777778 L87.7777778,1.24444444 L90,1.24444444 L90,4.97777778 L87.7777778,4.97777778 L87.7777778,4.97777778 Z M82.4366667,9.95555556 L88.8888889,9.95555556 L88.8888889,17.1820444 L82.4366667,9.95555556 L82.4366667,9.95555556 Z" id="Shape" sketch:type="MSShapeGroup"></path>
            <path d="M28.8888889,33.6 L28.8888889,43.5555556 L41.1111111,43.5555556 L41.1111111,33.6 L28.8888889,33.6 L28.8888889,33.6 Z M31.1111111,42.3111111 L30,42.3111111 L30,34.8444444 L31.1111111,34.8444444 L31.1111111,42.3111111 L31.1111111,42.3111111 Z M33.3333333,42.3111111 L32.2222222,42.3111111 L32.2222222,34.8444444 L33.3333333,34.8444444 L33.3333333,42.3111111 L33.3333333,42.3111111 Z M35.5555556,42.3111111 L34.4444444,42.3111111 L34.4444444,34.8444444 L35.5555556,34.8444444 L35.5555556,42.3111111 L35.5555556,42.3111111 Z M37.7777778,42.3111111 L36.6666667,42.3111111 L36.6666667,34.8444444 L37.7777778,34.8444444 L37.7777778,42.3111111 L37.7777778,42.3111111 Z M40,42.3111111 L38.8888889,42.3111111 L38.8888889,34.8444444 L40,34.8444444 L40,42.3111111 L40,42.3111111 Z" id="Shape" sketch:type="MSShapeGroup"></path>
            <rect id="Rectangle-path" sketch:type="MSShapeGroup" x="42.2222222" y="33.6" width="12.2222222" height="9.95555556"></rect>
            <rect id="Rectangle-path" sketch:type="MSShapeGroup" x="55.5555556" y="33.6" width="12.2222222" height="9.95555556"></rect>
            <rect id="Rectangle-path" sketch:type="MSShapeGroup" x="68.8888889" y="33.6" width="12.2222222" height="9.95555556"></rect>
            <rect id="Rectangle-path" sketch:type="MSShapeGroup" x="48.8888889" y="22.4" width="12.2222222" height="9.95555556"></rect>
            <rect id="Rectangle-path" sketch:type="MSShapeGroup" x="35.5555556" y="22.4" width="12.2222222" height="9.95555556"></rect>
        </g>
    </g>
</svg>