<?xml version="1.0" encoding="UTF-8" standalone="no"?>
<svg width="90px" height="56px" viewBox="0 0 90 56" version="1.1" xmlns="http://www.w3.org/2000/svg" xmlns:xlink="http://www.w3.org/1999/xlink" xmlns:sketch="http://www.bohemiancoding.com/sketch/ns">
    <!-- Generator: Sketch 3.3.3 (12081) - http://www.bohemiancoding.com/sketch -->
    <title>noun_4421</title>
    <desc>Created with Sketch.</desc>
    <defs></defs>
    <g id="Page-1" stroke="none" stroke-width="1" fill="none" fill-rule="evenodd" sketch:type="MSPage">
        <g id="noun_4421" sketch:type="MSLayerGroup" fill="#000000">
            <path d="M0,41.562 L17.6715,41.562 C16.4934,43.307 15.7851,45.443 15.7851,47.799 L7.0785,47.799 L0,45.807 L0,41.562 L0,41.562 Z" id="Shape" sketch:type="MSShapeGroup"></path>
            <path d="M81.2403,26.276 L76.2426,9.609 L76.2426,5.442 L60.5745,5.442 L60.5745,41.562 L32.6367,41.562 C33.8202,43.307 34.5294,45.443 34.5294,47.799 L63.7443,47.799 C63.7443,42.057 67.9455,37.396 73.125,37.396 C76.7637,37.396 79.9101,39.701 81.4635,43.073 C82.0197,44.284 82.3716,45.638 82.4535,47.057 C82.4715,47.304 82.5012,47.552 82.5012,47.799 L90,47.799 L90,30.443 L81.2403,26.276 L81.2403,26.276 Z M64.998,26.276 L64.998,13.776 L73.7523,13.776 L77.4909,26.276 L64.998,26.276 L64.998,26.276 Z" id="Shape" sketch:type="MSShapeGroup"></path>
            <path d="M25.1658,40.169 C21.3624,40.169 18.2862,43.593 18.2862,47.799 C18.2862,52.018 21.3624,55.443 25.1658,55.443 C28.9512,55.443 32.0274,52.018 32.0274,47.799 C32.0274,43.593 28.9512,40.169 25.1658,40.169 L25.1658,40.169 Z M25.1658,51.966 C23.085,51.966 21.3975,50.104 21.3975,47.799 C21.3975,45.507 23.085,43.632 25.1658,43.632 C27.2223,43.632 28.9098,45.507 28.9098,47.799 C28.9107,50.104 27.2232,51.966 25.1658,51.966 L25.1658,51.966 Z" id="Shape" sketch:type="MSShapeGroup"></path>
            <path d="M73.125,40.169 C69.3216,40.169 66.2454,43.593 66.2454,47.799 C66.2454,52.018 69.3216,55.443 73.125,55.443 C76.9104,55.443 79.9983,52.018 79.9983,47.799 C79.9983,43.593 76.9104,40.169 73.125,40.169 L73.125,40.169 Z M73.125,51.966 C71.0505,51.966 69.3747,50.104 69.3747,47.799 C69.3747,45.507 71.0505,43.632 73.125,43.632 C75.1932,43.632 76.8753,45.507 76.8753,47.799 C76.8753,50.104 75.1932,51.966 73.125,51.966 L73.125,51.966 Z" id="Shape" sketch:type="MSShapeGroup"></path>
            <rect id="Rectangle-path" sketch:type="MSShapeGroup" x="0" y="0" width="57.3516" height="39.167"></rect>
        </g>
    </g>
</svg>