<?xml version="1.0" encoding="UTF-8" standalone="no"?>
<svg width="199px" height="198px" viewBox="0 0 199 198" version="1.1" xmlns="http://www.w3.org/2000/svg" xmlns:xlink="http://www.w3.org/1999/xlink" xmlns:sketch="http://www.bohemiancoding.com/sketch/ns">
    <!-- Generator: Sketch 3.3.3 (12081) - http://www.bohemiancoding.com/sketch -->
    <title>noun_15357_cc</title>
    <desc>Created with Sketch.</desc>
    <defs></defs>
    <g id="Page-1" stroke="none" stroke-width="1" fill="none" fill-rule="evenodd" sketch:type="MSPage">
        <g id="noun_15357_cc" sketch:type="MSLayerGroup" transform="translate(0.000000, -1.000000)" fill="#000000">
            <path d="M99.082,1.96078431 C44.396,1.92352941 0.054,45.8352941 0,99.9568627 C0.054,154.158824 44.396,198.058824 99.082,198.039216 C153.788,198.060784 198.128,154.158824 198.17,99.9588235 C198.128,45.8352941 153.788,1.92352941 99.082,1.96078431 L99.082,1.96078431 Z M108.968,153.321569 L90.65,153.321569 L90.65,135.103922 L108.968,135.103922 L108.968,153.321569 L108.968,153.321569 Z M115.37,103.986275 C110.612,107.039216 108.838,110.572549 108.886,114.301961 L108.886,128.056863 L90.74,128.137255 L90.74,107.6 C90.754,101.513725 92.788,97.3588235 98.706,93.5960784 L108.886,86.8019608 C115.414,82.4372549 115.378,73.6372549 111.33,69.7 C107.746,66.3137255 101.738,64.3392157 95.294,65.5764706 C83.586,67.9333333 82.642,76.4333333 82.67,84.4784314 L82.67,88.0058824 L64.53,88.0058824 C64.558,72.8862745 66.258,66.0313725 74.34,57.4117647 C83.332,47.6921569 96.03,46.1333333 107.738,48.4686275 C119.46,50.8921569 133.402,62.0960784 133.422,78.372549 C133.402,94.7215686 120.13,100.919608 115.37,103.986275 L115.37,103.986275 Z" id="Shape" sketch:type="MSShapeGroup"></path>
        </g>
    </g>
</svg>