<?xml version="1.0" encoding="UTF-8" standalone="no"?>
<svg width="63px" height="113px" viewBox="0 0 63 113" version="1.1" xmlns="http://www.w3.org/2000/svg" xmlns:xlink="http://www.w3.org/1999/xlink" xmlns:sketch="http://www.bohemiancoding.com/sketch/ns">
    <!-- Generator: Sketch 3.3.3 (12081) - http://www.bohemiancoding.com/sketch -->
    <title>noun_195874_cc</title>
    <desc>Created with Sketch.</desc>
    <defs></defs>
    <g id="Page-1" stroke="none" stroke-width="1" fill="none" fill-rule="evenodd" sketch:type="MSPage">
        <g id="noun_195874_cc" sketch:type="MSLayerGroup" transform="translate(0.960938, 0.305664)">
            <path d="M7.75,18.9711476 L7.75,70.7959674 C2.9454495,75.1708485 0,80.9108276 0,87.1923015 C0,100.894461 13.8776119,111.999994 31,111.999994 C48.1223881,111.999994 62,100.894461 62,87.1923015 C62,80.9108276 59.0743223,75.1708485 54.25,70.7959674 L54.25,18.9711476 C54.25,8.6945301 43.8417903,0.365378413 31,0.365378413 C18.1582097,0.365378413 7.75,8.6945301 7.75,18.9711476 Z M31,12.7692246 C35.2707119,12.7692246 38.75,15.5456085 38.75,18.9711476 L38.75,31.3749938 L38.75,63.1986116 L38.75,76.4939842 C43.356831,78.6458257 46.5,82.6117298 46.5,87.1923015 C46.5,94.0433811 39.5611925,99.5961476 31,99.5961476 C22.4388075,99.5961476 15.5,94.0433811 15.5,87.1923015 C15.5,82.6117298 18.6332816,78.6458257 23.25,76.4939842 L23.25,63.1986116 L23.25,31.3749938 L23.25,18.9711476 C23.25,15.5456085 26.7194022,12.7692246 31,12.7692246 L31,12.7692246 Z" id="Shape" fill="#000000" sketch:type="MSShapeGroup"></path>
            <path d="M27.125,78.6936063 C22.6269139,79.9752176 19.375,83.3724487 19.375,87.4150606 C19.375,92.5494144 24.5840478,96.7179452 31,96.7179452 C37.4159522,96.7179452 42.625,92.5494144 42.625,87.4150606 C42.625,83.3724487 39.382972,79.9752176 34.875,78.6936063 L34.875,46.9087505 L27.125,46.9087505 L27.125,78.6936063 Z" id="Path" fill="#F3A530" sketch:type="MSShapeGroup"></path>
        </g>
    </g>
</svg>